<svg width="12" height="11" viewBox="0 0 12 11" fill="none" xmlns="http://www.w3.org/2000/svg">
<path d="M0.000158452 9.89819C0.000158452 10.0024 0.0847099 10.087 0.189018 10.087H11.69C11.7941 10.087 11.8788 10.0025 11.8788 9.89819C11.8788 9.79401 11.7943 9.70933 11.69 9.70933H11.3408V4.2869C11.3408 4.18273 11.2563 4.09804 11.152 4.09804L8.06849 4.09817V0.188889C8.06849 0.122777 8.03399 0.061668 7.97762 0.0274234C7.92138 -0.00694927 7.85106 -0.00905639 7.79258 0.0213652L4.28687 1.84661C4.22431 1.87914 4.18533 1.94367 4.18533 2.01413V5.42881H0.792558C0.688385 5.42881 0.603699 5.51337 0.603699 5.61768V9.70936H0.188597C0.0844234 9.70923 0 9.79378 0 9.89809L0.000158452 9.89819ZM8.06856 6.95852H10.9633V9.70948L8.06856 9.70935V6.95852ZM8.06856 5.64612H10.9633V6.58094L8.06856 6.58081V5.64612ZM8.06856 4.47569H10.9633V5.26868H8.06856V4.47569ZM4.56285 2.12881L7.69071 0.500192V9.70918H4.56285V2.12881ZM1.91502 8.20093C1.91502 7.80899 2.22556 7.49001 2.60736 7.49001C2.98916 7.49001 3.29984 7.80885 3.29984 8.20093V9.70942H1.91502V8.20093ZM0.981408 5.80647H4.18527V9.70935H3.67755V8.20086C3.67755 7.6007 3.19765 7.11236 2.60736 7.11236C2.01734 7.11236 1.53744 7.60056 1.53744 8.20086V9.70935H0.981408V5.80647Z" fill="#103E13"/>
</svg>
